<?xml version="1.0" encoding="utf-8"?>
<!-- Generator: Adobe Illustrator 23.1.1, SVG Export Plug-In . SVG Version: 6.00 Build 0)  -->
<svg version="1.1" id="Layer_1" xmlns="http://www.w3.org/2000/svg" xmlns:xlink="http://www.w3.org/1999/xlink" x="0px" y="0px"
	 viewBox="0 0 42.2 53.8" style="enable-background:new 0 0 42.2 53.8;" xml:space="preserve">
<style type="text/css">
	.st0{fill:#150000;}
</style>
<g>
	<g>
		<path class="st0" d="M36.6,5.7c-2.8-2.4-6.2-4.1-9.7-5c-1.7-0.4-3.8-1-5.4-0.2c-1.6,0.8-3,2.2-4.3,3.4C11.7,8.7,6.3,14.4,5.6,22
			c-0.3,3.4,0,7,1.7,10c1.5,2.8,4.2,4.6,7.3,5.3c6.3,1.5,14.3-0.8,19-5.3c6.5-6.3,5.9-16.8,3.9-24.8c-0.2-0.7-0.4-0.6-0.6,0
			C36.7,8,36.8,9.1,37,9.9c0.8,3.5,1.4,7.1,0.6,10.6c-0.7,3.1-2.2,6.1-4.6,8.2c-4.2,3.8-10.8,5.7-16.4,5.2
			c-5.4-0.5-10.9-4.6-10.2-10.6C7.2,17,12.4,12,16.9,8c1.4-1.2,2.8-2.7,4.4-3.6c1.6-0.9,3.5-0.4,5.2,0c3.7,0.9,7,2.6,9.9,5
			c0.4,0.3,0.5-1.2,0.5-1.3C36.9,7.5,37,6.1,36.6,5.7L36.6,5.7z"/>
	</g>
</g>
<g>
	<g>
		<path class="st0" d="M29.1,35.6c0.1,5.1,0.5,10.2,1.4,15.2c0,0.1,0.1,1,0.4,0.9c2.5-0.8,5.1-1.5,7.6-2.3c0.8-0.2,0.2-3.8-0.1-3.7
			c-2.5,0.8-5.1,1.5-7.6,2.3c0.1,0.3,0.2,0.6,0.4,0.9c-0.7-4.4-1.1-8.9-1.2-13.4c0-0.3,0-1.9-0.5-1.8C29,33.8,29.1,35.5,29.1,35.6
			L29.1,35.6z"/>
	</g>
</g>
<g>
	<g>
		<path class="st0" d="M16.6,36.3c-1.7,1.9-2.9,4.3-3.6,6.8c-0.4,1.4-0.6,2.8-0.7,4.3c0,0.1,0,0.3,0,0.5c0.2-0.5,0.2-0.7,0.1-0.5
			c0,0-0.1,0.1-0.1,0.1c-0.3-0.1-0.6-0.1-0.9-0.3c-0.7-0.3-1.4-0.6-2.2-0.9c-0.3-0.1-0.4,1.7-0.4,1.9c0,0.4,0,1.6,0.5,1.8
			c0.7,0.3,1.4,0.6,2.2,0.9c0.6,0.3,1.1,0.4,1.4-0.3c0.3-0.7,0.2-1.5,0.3-2.3c0,0.2,0-0.3,0-0.3c0-0.1,0-0.3,0-0.4
			c0-0.3,0.1-0.6,0.2-0.9c0.5-2.5,1.8-4.9,3.5-6.8c0.2-0.2,0.2-0.6,0.2-0.9c0.1-0.5,0.1-1,0-1.4C17.2,37.5,17,36,16.6,36.3
			L16.6,36.3z"/>
	</g>
</g>
<g>
	<g>
		<path class="st0" d="M29.6,21.7c-0.1-0.5-0.2-1-0.1-1.5c0-0.1,0-0.1,0,0.1c-0.1,0.2-0.1,0.4-0.2,0.6c-0.1,0.3-0.3,0.6-0.5,0.9
			c-0.4,0.6-0.7,1.2-1.1,1.7c-0.9,1.1-1.9,2.1-3.4,2.4c-1.4,0.3-2.7-0.1-3.6-1.2c-0.4-0.5-0.8-1.1-1.2-1.7c-0.2-0.3-0.4-0.7-0.6-1
			c-0.1-0.2-0.2-0.4-0.2-0.5c-0.1-0.4,0-0.7,0,0.6c0-0.5,0-1-0.1-1.4c0-0.1-0.1-0.8-0.3-0.8c-0.4-0.2-0.5,1.1-0.5,1.3
			c0,1.4,0.1,2.9,0.7,4.2c0.4,0.9,1,1.7,1.5,2.5c1.1,1.6,2.8,2.4,4.7,1.8c1.8-0.6,3-2.2,4-3.8c0.5-0.8,1-1.7,1.3-2.6
			c0.4-1.5,0.3-3.2-0.1-4.7c-0.2-0.8-0.5,0.5-0.5,0.7C29.3,20,29.4,20.9,29.6,21.7L29.6,21.7z"/>
	</g>
</g>
<g>
	<g>
		<path class="st0" d="M22.2,15.2c-0.1-0.5-0.1-1-0.1-1.5c0-0.1,0-0.2,0-0.4c0-0.3,0.1-0.4,0-0.3c0,0.1,0.1-0.3,0-0.1
			c0,0,0,0.1-0.1,0.1c0-0.1,0.1-0.1,0.1-0.2c-0.1,0.2-0.2,0.4-0.4,0.5c0,0,0.1,0,0.1-0.1c-0.4,0.2-0.9,0.2-1.3,0c0,0,0.1,0,0.1,0.1
			c-0.6-0.3-0.8-1.2-1.5-1.2c-0.2,0-0.3,0.5-0.3,0.6c-0.1,0.4-0.1,0.9-0.1,1.3c0,0.4,0,0.9,0.2,1.3c0,0.1,0.1,0.5,0.3,0.5
			c0.1,0,0.2,0,0.3,0.1c0,0-0.1,0-0.1-0.1c0.3,0.2,0.5,0.5,0.7,0.8c0.3,0.3,0.7,0.5,1.2,0.5c0.4,0,0.8-0.3,1.1-0.7
			c0.2-0.4,0.3-0.8,0.4-1.3c0.1-0.9,0-1.8-0.1-2.7c0-0.1-0.1-0.5-0.3-0.5c-0.2,0-0.3,0.5-0.3,0.6C22,13.4,22.1,14.4,22.2,15.2
			L22.2,15.2z"/>
	</g>
</g>
<g>
	<g>
		<path class="st0" d="M33,11.3c-0.1,0.1-0.2,0.1-0.2,0.2c0,0,0.1,0,0.1-0.1c-1.3,0.8-3,0.8-4.4,0.1c0,0,0.1,0,0.1,0.1
			c-0.3-0.2-0.6-0.4-0.9-0.7c-0.4-0.4-0.5,1.2-0.5,1.3c0,0.5,0,1,0.1,1.4c0,0.3,0.1,0.6,0.3,0.8c1.5,1.6,4,1.8,5.7,0.4
			c0.2-0.1,0.2-0.7,0.2-0.9c0.1-0.5,0.1-1,0-1.4c0-0.4-0.1-0.8-0.2-1.1C33.2,11.3,33.2,11.1,33,11.3L33,11.3z"/>
	</g>
</g>
<g>
	<g>
		<path class="st0" d="M37.5,24.5c0.6,1.3,1.2,2.5,1.8,3.8c0.1,0.1,0.2,0.3,0.3,0.2c0.2-0.2,0.2-0.7,0.2-0.9c0-0.5,0.1-1,0-1.4
			c0-0.4-0.1-0.8-0.2-1.1c-0.6-1.3-1.2-2.5-1.8-3.8c-0.1-0.1-0.2-0.3-0.3-0.2c-0.2,0.2-0.2,0.7-0.2,0.9c0,0.5-0.1,1,0,1.4
			C37.4,23.7,37.4,24.1,37.5,24.5L37.5,24.5z"/>
	</g>
</g>
<g>
	<g>
		<path class="st0" d="M6,22.9c-1.9-2.1-3.5-4.4-4.8-6.9c-0.1-0.2-0.1-0.3-0.3-0.2c-0.2,0.1-0.2,0.7-0.2,0.9c0,0.5-0.1,1,0,1.4
			c0,0.4,0,0.8,0.2,1.1c1.4,2.6,3,5.1,5,7.3c0.3,0.4,0.5-1.2,0.5-1.3c0-0.5,0-1-0.1-1.4C6.2,23.5,6.2,23.1,6,22.9L6,22.9z"/>
	</g>
</g>
</svg>
