<?xml version="1.0" encoding="utf-8"?>
<!-- Generator: Adobe Illustrator 23.1.1, SVG Export Plug-In . SVG Version: 6.00 Build 0)  -->
<svg version="1.1" id="Calque_1" xmlns="http://www.w3.org/2000/svg" xmlns:xlink="http://www.w3.org/1999/xlink" x="0px" y="0px"
	 viewBox="0 0 193 103.2" style="enable-background:new 0 0 193 103.2;" xml:space="preserve">
<style type="text/css">
	.st0{fill:none;stroke:#97E900;stroke-width:2;stroke-linejoin:round;stroke-miterlimit:10;}
	.st1{fill:none;stroke:#97E900;stroke-width:2;stroke-linecap:round;stroke-linejoin:round;stroke-miterlimit:10;}
	.st2{fill:#150000;}
</style>
<polygon class="st0" points="98,86.2 95,88.2 92,86.2 92,83.2 95,81.2 98,83.2 "/>
<g>
	<polygon class="st1" points="106,102.2 102,91.2 88,91.2 84,102.2 	"/>
</g>
<polyline class="st1" points="120,23.2 143,23.2 143,91.2 47,91.2 47,23.2 72,23.2 "/>
<line class="st1" x1="47" y1="78.2" x2="143" y2="78.2"/>
<g>
	<g>
		<path class="st2" d="M111.2,16c-2.8-2.4-6.2-4.1-9.7-5c-1.7-0.4-3.8-1-5.4-0.2c-1.6,0.8-3,2.2-4.3,3.4C86.3,19,81,24.6,80.2,32.2
			c-0.3,3.4,0,7,1.7,10c1.5,2.8,4.2,4.6,7.3,5.3c6.3,1.5,14.3-0.8,19-5.3c6.5-6.3,5.9-16.8,3.9-24.8c-0.2-0.7-0.4-0.6-0.6,0
			c-0.2,0.8-0.1,1.9,0.1,2.7c0.8,3.5,1.4,7.1,0.6,10.6c-0.7,3.1-2.2,6.1-4.6,8.2c-4.2,3.8-10.8,5.7-16.4,5.2
			c-5.4-0.5-10.9-4.6-10.2-10.6c0.8-6.3,6-11.3,10.5-15.3c1.4-1.2,2.8-2.7,4.4-3.6c1.6-0.9,3.5-0.4,5.2,0c3.7,0.9,7,2.6,9.9,5
			c0.4,0.3,0.5-1.2,0.5-1.3C111.6,17.8,111.7,16.4,111.2,16L111.2,16z"/>
	</g>
</g>
<g>
	<g>
		<path class="st2" d="M103.8,45.8c0.1,5.1,0.5,10.2,1.4,15.2c0,0.1,0.1,1,0.4,0.9c2.5-0.8,5.1-1.5,7.6-2.3c0.8-0.2,0.2-3.8-0.1-3.7
			c-2.5,0.8-5.1,1.5-7.6,2.3c0.1,0.3,0.2,0.6,0.4,0.9c-0.7-4.4-1.1-8.9-1.2-13.4c0-0.3,0-1.9-0.5-1.8
			C103.7,44,103.8,45.8,103.8,45.8L103.8,45.8z"/>
	</g>
</g>
<g>
	<g>
		<path class="st2" d="M91.2,46.5c-1.7,1.9-2.9,4.3-3.6,6.8c-0.4,1.4-0.6,2.8-0.7,4.3c0,0.1,0,0.3,0,0.5c0.2-0.5,0.2-0.7,0.1-0.5
			L87,57.7c-0.3-0.1-0.6-0.1-0.9-0.3c-0.7-0.3-1.4-0.6-2.2-0.9c-0.3-0.1-0.4,1.7-0.4,1.9c0,0.4,0,1.6,0.5,1.8
			c0.7,0.3,1.4,0.6,2.2,0.9c0.6,0.3,1.1,0.4,1.4-0.3c0.3-0.7,0.2-1.5,0.3-2.3c0,0.2,0-0.3,0-0.3c0-0.1,0-0.3,0-0.4
			c0-0.3,0.1-0.6,0.2-0.9c0.5-2.5,1.8-4.9,3.5-6.8c0.2-0.2,0.2-0.6,0.2-0.9c0.1-0.5,0.1-1,0-1.4C91.8,47.8,91.7,46.2,91.2,46.5
			L91.2,46.5z"/>
	</g>
</g>
<g>
	<g>
		<path class="st2" d="M104.2,32c-0.1-0.5-0.2-1-0.1-1.5c0-0.1,0-0.1,0,0.1c-0.1,0.2-0.1,0.4-0.2,0.6c-0.1,0.3-0.3,0.6-0.5,0.9
			c-0.4,0.6-0.7,1.2-1.1,1.7c-0.9,1.1-1.9,2.1-3.4,2.4c-1.4,0.3-2.7-0.1-3.6-1.2c-0.4-0.5-0.8-1.1-1.2-1.7c-0.2-0.3-0.4-0.7-0.6-1
			c-0.1-0.2-0.2-0.4-0.2-0.5c-0.1-0.4,0-0.7,0,0.6c0-0.5,0-1-0.1-1.4c0-0.1-0.1-0.8-0.3-0.8c-0.4-0.2-0.5,1.1-0.5,1.3
			c0,1.4,0.1,2.9,0.7,4.2c0.4,0.9,1,1.7,1.5,2.5c1.1,1.6,2.8,2.4,4.7,1.8c1.8-0.6,3-2.2,4-3.8c0.5-0.8,1-1.7,1.3-2.6
			c0.4-1.5,0.3-3.2-0.1-4.7c-0.2-0.8-0.5,0.5-0.5,0.7C103.9,30.2,104.1,31.1,104.2,32L104.2,32z"/>
	</g>
</g>
<g>
	<g>
		<path class="st2" d="M96.8,25.5c-0.1-0.5-0.1-1-0.1-1.5c0-0.1,0-0.2,0-0.4c0-0.3,0.1-0.4,0-0.3c0,0.1,0.1-0.3,0-0.1
			c0,0,0,0.1-0.1,0.1c0-0.1,0.1-0.1,0.1-0.2c-0.1,0.2-0.2,0.4-0.4,0.5c0,0,0.1,0,0.1-0.1c-0.4,0.2-0.9,0.2-1.3,0c0,0,0.1,0,0.1,0.1
			c-0.6-0.3-0.8-1.2-1.5-1.2c-0.2,0-0.3,0.5-0.3,0.6c-0.1,0.4-0.1,0.9-0.1,1.3c0,0.4,0,0.9,0.2,1.3c0,0.1,0.1,0.5,0.3,0.5
			c0.1,0,0.2,0,0.3,0.1c0,0-0.1,0-0.1-0.1c0.3,0.2,0.5,0.5,0.7,0.8c0.3,0.3,0.7,0.5,1.2,0.5c0.4,0,0.8-0.3,1.1-0.7
			c0.2-0.4,0.3-0.8,0.4-1.3c0.1-0.9,0-1.8-0.1-2.7c0-0.1-0.1-0.5-0.3-0.5s-0.3,0.5-0.3,0.6C96.7,23.6,96.8,24.6,96.8,25.5L96.8,25.5
			z"/>
	</g>
</g>
<g>
	<g>
		<path class="st2" d="M107.7,21.6c-0.1,0.1-0.2,0.1-0.2,0.2c0,0,0.1,0,0.1-0.1c-1.3,0.8-3,0.8-4.4,0.1c0,0,0.1,0,0.1,0.1
			c-0.3-0.2-0.6-0.4-0.9-0.7c-0.4-0.4-0.5,1.2-0.5,1.3c0,0.5,0,1,0.1,1.4c0,0.3,0.1,0.6,0.3,0.8c1.5,1.6,4,1.8,5.7,0.4
			c0.2-0.1,0.2-0.7,0.2-0.9c0.1-0.5,0.1-1,0-1.4c0-0.4-0.1-0.8-0.2-1.1C107.8,21.6,107.8,21.4,107.7,21.6L107.7,21.6z"/>
	</g>
</g>
<g>
	<g>
		<path class="st2" d="M112.2,34.8c0.6,1.3,1.2,2.5,1.8,3.8c0.1,0.1,0.2,0.3,0.3,0.2c0.2-0.2,0.2-0.7,0.2-0.9c0-0.5,0.1-1,0-1.4
			c0-0.4-0.1-0.8-0.2-1.1c-0.6-1.3-1.2-2.5-1.8-3.8c-0.1-0.1-0.2-0.3-0.3-0.2c-0.2,0.2-0.2,0.7-0.2,0.9c0,0.5-0.1,1,0,1.4
			C112.1,34,112.1,34.4,112.2,34.8L112.2,34.8z"/>
	</g>
</g>
<g>
	<g>
		<path class="st2" d="M80.7,33.2c-1.9-2.1-3.5-4.4-4.8-6.9c-0.1-0.2-0.1-0.3-0.3-0.2c-0.2,0.1-0.2,0.7-0.2,0.9c0,0.5-0.1,1,0,1.4
			c0,0.4,0,0.8,0.2,1.1c1.4,2.6,3,5.1,5,7.3c0.3,0.4,0.5-1.2,0.5-1.3c0-0.5,0-1-0.1-1.4C80.8,33.8,80.8,33.4,80.7,33.2L80.7,33.2z"
			/>
	</g>
</g>
</svg>
